<svg width="17" height="17" viewBox="0 0 17 17" fill="none" xmlns="http://www.w3.org/2000/svg">
<g clip-path="url(#clip0_1_71)">
<path d="M15.5833 8.5H13.8266C13.5171 8.49934 13.2158 8.60009 12.9689 8.78685C12.722 8.97361 12.5431 9.2361 12.4595 9.53416L10.795 15.4558C10.7842 15.4926 10.7619 15.5249 10.7312 15.5479C10.7006 15.5709 10.6633 15.5833 10.625 15.5833C10.5866 15.5833 10.5494 15.5709 10.5187 15.5479C10.4881 15.5249 10.4657 15.4926 10.455 15.4558L6.54496 1.54416C6.53423 1.50738 6.51186 1.47507 6.48121 1.45208C6.45056 1.42909 6.41327 1.41666 6.37496 1.41666C6.33664 1.41666 6.29936 1.42909 6.26871 1.45208C6.23806 1.47507 6.21569 1.50738 6.20496 1.54416L4.54038 7.46583C4.45712 7.76273 4.27927 8.02436 4.03382 8.21101C3.78837 8.39765 3.48873 8.49911 3.18038 8.5H1.41663" stroke="white" stroke-opacity="0.6" stroke-width="1.41667" stroke-linecap="round" stroke-linejoin="round"/>
</g>
<defs>
<clipPath id="clip0_1_71">
<rect width="17" height="17" fill="white"/>
</clipPath>
</defs>
</svg>
