<svg width="17" height="17" viewBox="0 0 17 17" fill="none" xmlns="http://www.w3.org/2000/svg">
<g clip-path="url(#clip0_1_101)">
<path d="M11.3333 14.875V13.4583C11.3333 12.7069 11.0348 11.9862 10.5034 11.4549C9.97208 10.9235 9.25141 10.625 8.49996 10.625H4.24996C3.49851 10.625 2.77784 10.9235 2.24649 11.4549C1.71514 11.9862 1.41663 12.7069 1.41663 13.4583V14.875" stroke="white" stroke-opacity="0.6" stroke-width="1.41667" stroke-linecap="round" stroke-linejoin="round"/>
<path d="M6.37496 7.79167C7.93977 7.79167 9.20829 6.52314 9.20829 4.95833C9.20829 3.39353 7.93977 2.125 6.37496 2.125C4.81015 2.125 3.54163 3.39353 3.54163 4.95833C3.54163 6.52314 4.81015 7.79167 6.37496 7.79167Z" stroke="white" stroke-opacity="0.6" stroke-width="1.41667" stroke-linecap="round" stroke-linejoin="round"/>
<path d="M15.5834 14.875V13.4583C15.5829 12.8305 15.374 12.2207 14.9893 11.7245C14.6047 11.2284 14.0662 10.874 13.4584 10.7171" stroke="white" stroke-opacity="0.6" stroke-width="1.41667" stroke-linecap="round" stroke-linejoin="round"/>
<path d="M11.3334 2.21707C11.9428 2.37312 12.483 2.72757 12.8688 3.22454C13.2545 3.72151 13.4639 4.33274 13.4639 4.96186C13.4639 5.59098 13.2545 6.20221 12.8688 6.69918C12.483 7.19616 11.9428 7.55061 11.3334 7.70665" stroke="white" stroke-opacity="0.6" stroke-width="1.41667" stroke-linecap="round" stroke-linejoin="round"/>
</g>
<defs>
<clipPath id="clip0_1_101">
<rect width="17" height="17" fill="white"/>
</clipPath>
</defs>
</svg>
